<svg width="512" height="512" viewBox="0 0 512 512" fill="none" xmlns="http://www.w3.org/2000/svg">
  <rect width="512" height="512" rx="100" fill="url(#gradient)" />
  <path d="M256 120C176.5 120 112 174.5 112 242C112 280 131.5 314 162 336.5C162 336.5 156 380 124 400C124 400 183.5 404 232 371C239.5 372 247.5 372.5 256 372.5C335.5 372.5 400 318 400 250.5C400 183 335.5 120 256 120Z" fill="white"/>
  <circle cx="180" cy="242" r="20" fill="url(#gradient)"/>
  <circle cx="256" cy="242" r="20" fill="url(#gradient)"/>
  <circle cx="332" cy="242" r="20" fill="url(#gradient)"/>
  <defs>
    <linearGradient id="gradient" x1="0" y1="0" x2="512" y2="512" gradientUnits="userSpaceOnUse">
      <stop offset="0%" stop-color="#4ECDC4"/>
      <stop offset="100%" stop-color="#2BAF9E"/>
    </linearGradient>
  </defs>
</svg> 